<?xml version="1.0" encoding="UTF-8" standalone="no"?>
<svg
   version="1.1"
   id="svg2"
   xml:space="preserve"
   width="81.926674"
   height="78.098183"
   viewBox="0 0 81.926673 78.098182"
   sodipodi:docname="cmu_ece.svg"
   inkscape:version="1.3.2 (091e20ef0f, 2023-11-25, custom)"
   xmlns:inkscape="http://www.inkscape.org/namespaces/inkscape"
   xmlns:sodipodi="http://sodipodi.sourceforge.net/DTD/sodipodi-0.dtd"
   xmlns="http://www.w3.org/2000/svg"
   xmlns:svg="http://www.w3.org/2000/svg"
   xmlns:rdf="http://www.w3.org/1999/02/22-rdf-syntax-ns#"
   xmlns:cc="http://creativecommons.org/ns#"
   xmlns:dc="http://purl.org/dc/elements/1.1/"><metadata
     id="metadata8"><rdf:RDF><cc:Work
         rdf:about=""><dc:format>image/svg+xml</dc:format><dc:type
           rdf:resource="http://purl.org/dc/dcmitype/StillImage" /><dc:title /></cc:Work></rdf:RDF></metadata><defs
     id="defs6" /><sodipodi:namedview
     pagecolor="#ffffff"
     bordercolor="#666666"
     borderopacity="1"
     objecttolerance="10"
     gridtolerance="10"
     guidetolerance="10"
     inkscape:pageopacity="0"
     inkscape:pageshadow="2"
     inkscape:window-width="1920"
     inkscape:window-height="1008"
     id="namedview4"
     showgrid="false"
     inkscape:zoom="3.0884044"
     inkscape:cx="158.33419"
     inkscape:cy="6.31394"
     inkscape:window-x="0"
     inkscape:window-y="0"
     inkscape:window-maximized="1"
     inkscape:current-layer="g10"
     inkscape:showpageshadow="0"
     inkscape:pagecheckerboard="1"
     inkscape:deskcolor="#d1d1d1" /><g
     id="g10"
     inkscape:groupmode="layer"
     inkscape:label="ink_ext_XXXXXX"
     transform="matrix(1.3333333,0,0,-1.3333333,0.11803843,77.989644)"><path
       d="M 26.9297,4.58594 C 21.052,7.71484 16.0281,14.5703 13.7273,23.2695 c 2.2102,-0.1308 4.6028,-0.1484 7.1477,-0.0273 -0.3027,1.3281 -0.5867,2.6797 -0.8445,4.0586 -0.0715,0.3808 -0.136,0.7597 -0.2035,1.1406 -2.6219,-0.0117 -5.0348,0.1524 -7.1598,0.4805 -1.0156,8.9648 1.1891,17.1992 5.5496,22.248 C 11.1648,46.8828 6.56055,39.3203 6.08906,30.9688 4.81758,31.7266 3.99727,32.6445 3.73242,33.709 3.66797,33.9688 3.65039,34.2227 3.66602,34.4648 0.921875,32.6172 -0.464844,30.668 0,28.7461 0.4875,26.7305 2.89648,25.2148 6.61328,24.2754 8.80391,13.9297 17.0488,6.34961 26.9297,4.58594"
       style="fill:#ffffff;fill-opacity:1;fill-rule:nonzero;stroke:none;stroke-width:0.1"
       id="path14" /><path
       d="m 61.2668,39.8828 c -0.4629,1.9219 -2.6484,3.2168 -6.0344,3.9492 0.1824,-0.289 0.3235,-0.6035 0.4094,-0.9531 0.2742,-1.1035 -0.0941,-2.2676 -0.9668,-3.4375 -3.3625,7.918 -10.5273,13.5352 -18.8527,15.0234 6.0175,-3.2011 11.1433,-10.3085 13.3652,-19.3046 -2.7539,-1.4903 -6.2461,-2.8633 -10.2363,-3.9805 0.0363,-0.1914 0.0722,-0.3848 0.1086,-0.5781 0.2808,-1.502 0.5527,-2.9786 0.8152,-4.4297 3.8113,0.9902 7.2805,2.1621 10.2695,3.4375 0.8739,-8.7637 -1.334,-16.7774 -5.6101,-21.73049 8.3953,5.10739 13.3133,14.84569 11.9246,25.04299 3.5058,2.3301 5.3359,4.7695 4.8078,6.9609"
       style="fill:#ffffff;fill-opacity:1;fill-rule:nonzero;stroke:none;stroke-width:0.1"
       id="path16" /><path
       d="M 39.7656,5.33789 C 34.9414,4.22656 29.0422,14.4063 26.5918,28.0703 c -2.4512,13.668 -0.5266,25.6485 4.2988,26.7578 0.261,0.0625 0.5125,0.0762 0.7571,0.0606 -1.8332,2.623 -3.7715,3.9551 -5.6985,3.5234 C 20.6035,57.2188 18.6855,43.1738 21.6648,27.043 24.6445,10.9141 31.3934,-1.19531 36.7395,0 c 1.9214,0.429688 3.2293,2.5 3.98,5.7207 C 40.4309,5.55078 40.1152,5.41797 39.7656,5.33789"
       style="fill:#990000;fill-opacity:1;fill-rule:nonzero;stroke:none;stroke-width:0.1"
       id="path18" /></g></svg>
