<?xml version="1.0" encoding="UTF-8"?>
<svg height="0INVALID" version="1.1" viewBox="0 0 140.67 140.67" xmlns="http://www.w3.org/2000/svg"><rect width="140.67" height="140.67" fill="#00274c"/><path d="m71.35 69.337-14.906-20.378v14.819h5.925v14.644h-27.416v-14.644h5.5594v-22.78h-5.5594v-14.632h21.54l14.856 20.518 14.863-20.518h21.525v14.632h-5.5626v22.78h5.5626v14.644h-27.412v-14.644h5.925v-14.819l-14.9 20.378" fill="#fccb06"/><g transform="translate(6.3939 34.702)" fill="#fff"><path d="m43.156 78.006c0.0052 1.0365 0.0052 1.1771 0.55213 1.1953v0.2474h-1.8907v-0.2474c0.4896-0.04427 0.5364-0.11979 0.5468-0.60677 0.0052-0.1849 0.0052-0.39323 0.0052-0.58334v-1.6354c0-0.54167-0.0052-0.73177-0.026-0.88541-0.0312-0.24219-0.15627-0.28907-0.526-0.32292v-0.24219l2.052 0.0026c1.1147 0 1.4688 0.53125 1.4688 1.1641 0 0.43751-0.2708 1-0.89587 1.1901l0.80213 1.3958c0.2916 0.53125 0.44267 0.65104 0.80733 0.70312v0.15625c-0.09373 0.0052-0.1928 0.01042-0.29693 0.01042-0.84893 0-1.1979-0.28906-1.5573-1.0573l-0.2552-0.52344c-0.2656-0.57552-0.35413-0.54167-0.7812-0.54688v0.58595zm0-0.98177c0.11973 0.02344 0.2968 0.03907 0.42187 0.03907 0.5156 0.0052 0.90627-0.39584 0.92187-0.75781 0.0312-0.52344-0.2344-0.98177-1.0677-0.98177-0.11453 0-0.18747 0.01041-0.276 0.02604zm57.786 0.45573v0.24479c-0.41146 0.02864-0.41146 0.14323-0.42186 1v0.33854c-0.34894 0.21875-0.84894 0.53125-1.7396 0.53125-1.5572 0-2.2968-1.1745-2.2968-2.3594 0-1.4531 0.974-2.3958 2.2031-2.3958 0.77613 0 1.2188 0.29427 1.5885 0.51823l0.2344-0.27084 0.0313 1.4141-0.1824 0.03385c-0.0937-0.27344-0.22907-0.58073-0.57293-0.92448-0.15093-0.14323-0.43747-0.33333-0.89053-0.33333-0.79173 0-1.448 0.66667-1.448 1.9714 0 1.0339 0.51053 1.9245 1.3907 1.9245 0.5104 0 0.7656-0.35417 0.79173-0.38021 0.07813-0.11979 0.09893-0.22917 0.08853-0.42448-0.02093-0.57552-0.09907-0.59115-0.59907-0.64323v-0.24479zm-59.885 1.9687c0-0.32813 0.052-0.86198 0.09373-1.1719h-0.2188c-0.15107 0.8099-0.60413 0.76562-1.2604 0.76562-0.60413 0-0.724-0.16146-0.724-0.45052v-1.2682h0.4896c0.55213 0 0.7136 0.04687 0.7136 0.55208h0.21867v-1.4896h-0.21867c-0.04173 0.40104-0.12507 0.53907-0.7084 0.53907h-0.4948v-1.5964h0.55733c0.7708 0 1.0417 0.05729 1.1459 0.66667h0.20307l-0.0208-1.0703h-3.224v0.24219c0.32813 0.03385 0.4688 0.05208 0.5104 0.26563 0.03653 0.13541 0.03653 0.64323 0.03653 0.82031v1.5859c0 0.11979 0 0.66666-0.0104 0.77083-0.0104 0.49479-0.06773 0.54167-0.53653 0.59115v0.2474zm17.562 0v-0.24479c0.35427-0.04167 0.4896-0.05208 0.57813-0.14063 0.10427-0.10417 0.10427-0.21875 0.10947-0.70573v-0.79948l-1.198-1.862c-0.33333-0.4922-0.33853-0.5-0.7708-0.52865v-0.2474h2.3489v0.2474c-0.46867 0.01563-0.68227 0.02865-0.68227 0.2474 0 0.11979 0.08333 0.25781 0.19787 0.45312l0.6928 1.1328 0.64053-1.1302c0.10947-0.22395 0.1772-0.35937 0.1772-0.46093 0-0.21353-0.1876-0.21875-0.5-0.24219v-0.2474h1.7656v0.2474c-0.4584 0.01563-0.58853 0.15104-1.1041 0.99479l-0.7084 1.1771v0.9427c0 0.82292 0.0052 0.88021 0.67707 0.91927v0.2474zm-21.437-4.5234v0.24219c-0.43227 0.06771-0.4948 0.19011-0.86453 1.0859l-1.3803 3.2839h-0.2396l-1.2395-3.3359c-0.30733-0.85677-0.34387-0.95833-0.79693-1.0339v-0.24219h2.1407v0.24219c-0.36467 0.01563-0.59907 0.02865-0.59907 0.28645 0 0.13803 0.03133 0.2422 0.15627 0.6224l0.78653 2.2943 0.92187-2.375c0.05733-0.16145 0.13533-0.36197 0.13533-0.47656 0-0.32812-0.3228-0.34635-0.60413-0.35156v-0.24219zm-16.031 0v0.24219c-0.59893 0.04167-0.59893 0.06771-0.60933 1.0339v1.0573c0 0.55208 0.0156 1.0234 0.302 1.4453 0.2344 0.33854 0.62507 0.38281 0.82293 0.38281 0.64587 0 1.0052-0.33333 1.1615-0.87239 0.12493-0.42188 0.13027-1.2135 0.13027-1.737 0-0.16667 0-0.70572-0.0053-0.85677-0.026-0.41145-0.23947-0.41927-0.64053-0.45312v-0.24219h1.7187v0.24219c-0.42187-0.01041-0.5104 0.09115-0.5364 0.53645-0.0052 0.10939-0.05733 1.3646-0.06253 1.5625-0.0104 0.33855-0.0312 0.68229-0.10933 1.0104-0.30733 1.2135-1.4896 1.2812-1.8073 1.2812-0.2448 0-0.7604-0.03906-1.1823-0.32292-0.6719-0.45312-0.6823-1.1354-0.6823-1.8646v-1.026c-0.0052-0.48176-0.0052-0.70052-0.0208-0.81509-0.03653-0.28647-0.1772-0.33855-0.51573-0.36199v-0.24219zm32.583 4.5234v-0.19531c0.41667-0.0052 0.5312-0.15885 0.5312-0.51823v-3.3255h-0.56253c-0.5104 0-0.84893-0.02344-0.89053 0.78647h-0.2344l0.0364-1.2708h4.1095l0.0364 1.2708h-0.2396c-0.0364-0.80991-0.37493-0.78647-0.88533-0.78647h-0.56253v3.3255c0 0.35938 0.11453 0.51302 0.5312 0.51823v0.19531zm-7.4323-1.4115 0.22907-0.02604c0.25 0.74219 0.66667 1.1354 1.3439 1.1354 0.47907 0 0.90613-0.20833 0.90613-0.69271 0-0.51042-0.48947-0.71094-0.71347-0.80729-0.17707-0.06511-0.36987-0.12761-0.55213-0.19792-0.36973-0.13541-1.0677-0.41927-1.0677-1.3021 0-0.84115 0.66667-1.3177 1.4428-1.3177 0.302 0 0.65107 0.06251 1.0364 0.30991l0.276-0.20052 0.15107 1.3437-0.22907 0.04167c-0.07813-0.28907-0.13547-0.42708-0.31253-0.66667-0.2136-0.28125-0.5208-0.41407-0.88027-0.41407-0.4844 0-0.7656 0.23437-0.7656 0.59115 0 0.53645 0.5312 0.71875 1.0364 0.88541 0.26053 0.08595 0.4688 0.15104 0.65107 0.26043 0.36467 0.21615 0.65627 0.61197 0.65627 1.1536 0 0.78125-0.64067 1.4297-1.5937 1.4297-0.61453 0-0.9948-0.24479-1.1719-0.36198l-0.37507-0.27344zm-21.688 1.4115v-0.24479c0.36987-0.02083 0.51053-0.02604 0.56253-0.27865 0.06253-0.30469 0.07813-2.987 0.08333-3.4531-0.2448-0.22917-0.34893-0.27604-0.64587-0.30469v-0.24219h1.3543c0.37493 0.54167 0.46347 0.66667 1.1249 1.4896l1.2656 1.5625v-2.0286c-0.0052-0.71355-0.026-0.7474-0.7448-0.78125v-0.23959h1.7813v0.23959c-0.4948 0.01041-0.53653 0.10937-0.54173 0.84375l-0.06773 3.4948h-0.2656l-0.40627-0.50521c-0.20307-0.25781-0.41147-0.51042-0.61453-0.76563l-1.7864-2.2005v2.3411c0 0.72917 0.052 0.75781 0.7448 0.82552v0.2474zm25.427 0v-0.24479c0.43747-0.05729 0.5312-0.10938 0.5312-0.58333v-2.4062c0-0.94271 0-0.97136-0.5312-1.0469v-0.24219h1.8749v0.24219c-0.5364 0.05208-0.5364 0.07552-0.5364 1.0469v1.8229c0 0.15887 0.0104 0.66667 0.0208 0.80209 0.0312 0.27604 0.16147 0.33333 0.5156 0.36198v0.2474zm-19.927 0v-0.24479c0.448-0.05729 0.53133-0.10938 0.54173-0.58333v-2.4062c-0.0104-0.94271-0.0104-0.97136-0.54173-1.0469v-0.24219h1.8803v0.24219c-0.5312 0.05208-0.5312 0.07552-0.5312 1.0469v1.8229c0 0.15887 0.0052 0.66667 0.0208 0.80209 0.0312 0.27604 0.16147 0.33333 0.5104 0.36198v0.2474zm38.87-0.21875v0.25h1.8749v-0.25c-0.46867-0.04687-0.526-0.09115-0.5416-0.58333l0.0052-1.2891h0.5c0.5052 0 0.776 0.04427 0.80733 0.55729h0.21867v-1.4948h-0.21867c-0.02613 0.48177-0.15627 0.53385-0.7084 0.53385h-0.59893v-1.5677c0.16147-0.01823 0.25-0.01823 0.5416-0.01823 0.88027 0 1.1667-0.0052 1.2865 0.69532h0.224l-0.06773-1.1042h-3.3229v0.24479c0.32547 0.03125 0.46867 0.04948 0.5156 0.26303 0.0312 0.13803 0.0364 0.63803 0.0364 0.81511v1.5937c0 0.11979-0.0052 0.66667-0.0156 0.77084-0.0104 0.49219-0.06773 0.53646-0.5364 0.58333zm-2.7136-0.05208c0.2604-0.01042 0.61987-0.13542 0.89587-0.5625 0.32293-0.48958 0.39067-0.9375 0.36973-1.5287-0.0156-0.58072-0.17707-1.0807-0.5156-1.4401-0.14053-0.15625-0.42707-0.38021-0.8072-0.3698-0.37507 0-0.65627 0.23437-0.79693 0.39584-0.31773 0.36457-0.4688 0.86979-0.4688 1.4531 0 0.58855 0.07813 1.0417 0.41667 1.5182 0.29173 0.41927 0.65107 0.53385 0.90627 0.53385zm2.2604-1.9635c0 1.5573-1.0624 2.3802-2.2604 2.3802-1.3177 0-2.3437-0.95052-2.3437-2.3906 0-1.2318 0.82813-2.3463 2.2813-2.3411 1.3697 0.0052 2.3228 0.97656 2.3228 2.3516zm37.724 2.2656v-0.24479c0.37506-0.02083 0.5156-0.02604 0.56773-0.28646 0.0625-0.29688 0.0781-2.9766 0.0885-3.4479-0.25-0.22916-0.35413-0.27604-0.65626-0.29688v-0.24479h1.3593c0.38027 0.53645 0.4584 0.65625 1.1251 1.4844l1.2656 1.5625v-2.026c-0.00517-0.71355-0.02597-0.75522-0.73957-0.77606v-0.24479h1.7813v0.24479c-0.4948 0-0.53653 0.10677-0.54693 0.84376l-0.0625 3.4896h-0.2708l-0.40626-0.5026c-0.20307-0.26302-0.41147-0.51562-0.61454-0.76823l-1.7865-2.2031v2.3463c0 0.72917 0.0521 0.7526 0.7396 0.82552v0.24479zm-27.945 0v-0.24479c0.5756-0.03385 0.5756-0.0625 0.5808-0.90104v-2.276l-1.5833 3.4792h-0.39587l-1.4531-3.526-0.03133 2.6615c0 0.44271 0.05213 0.52865 0.53133 0.5625v0.24479h-1.5677v-0.24479c0.36453-0.02083 0.5052-0.07292 0.526-0.3724 0.0208-0.1276 0.0364-0.50521 0.04173-0.75781l0.0624-1.8906c0.0052-0.15104 0.0052-0.36459 0.0052-0.52344 0-0.44792-0.08333-0.48699-0.4896-0.48959v-0.2474h1.422l1.4113 3.4323 1.5469-3.4323h1.3751v0.27084c-0.53653 0.03385-0.54173 0.09375-0.53653 0.79427v1.862c0 0.31511 0.0104 0.69531 0.0208 0.92968 0.03133 0.32813 0.15627 0.39063 0.51573 0.42448v0.24479zm2.8516 0v-0.24479c0.44267-0.05729 0.5312-0.10938 0.5364-0.58333v-2.4089c-0.0052-0.93749-0.0052-0.96615-0.5364-1.0417v-0.2474h1.8803v0.2474c-0.53653 0.05208-0.53653 0.07552-0.53653 1.0417v1.8255c0 0.16147 0.0104 0.66667 0.0208 0.80209 0.03653 0.27604 0.16147 0.33854 0.51573 0.36458v0.24479zm12.88 0v-0.24479c0.44787-0.05729 0.5312-0.10938 0.5416-0.58333v-2.4089c-0.0104-0.93749-0.0104-0.96615-0.5416-1.0417v-0.2474h1.8801v0.2474c-0.526 0.05208-0.526 0.07552-0.526 1.0417v1.8255c0 0.16147 0.0052 0.66667 0.0156 0.80209 0.0312 0.27604 0.16147 0.33854 0.5104 0.36458v0.24479zm-5.5781 0v-0.24479c0.5156-0.03906 0.5208-0.15364 0.5208-0.58854 0.0052-0.16146 0.0052-0.32292 0.0052-0.47917v-1.8958c0-0.29428 0-0.58855-0.0208-0.72917-0.02613-0.27083-0.15107-0.30729-0.5052-0.33855v-0.24479h1.9375v0.24479c-0.38027 0.03907-0.5208 0.04948-0.56773 0.29688-0.0312 0.14584-0.0364 0.47917-0.0364 0.7526v0.6224c0.39053 0.02084 0.66667 0.03385 1.0416 0.03385 0.38547 0 0.68747-0.01301 1.0729-0.03385v-0.76041c-0.0052-0.82292-0.0104-0.85677-0.62507-0.91147v-0.24479h1.9584v0.24479c-0.526 0.06251-0.526 0.06772-0.526 0.92969v1.9036c0 0.17709 0.0104 0.75001 0.026 0.88803 0.0312 0.23177 0.16667 0.27865 0.5 0.3099v0.24479h-1.9584v-0.24479c0.4532-0.05208 0.57293-0.0625 0.61467-0.3724 0.0104-0.13281 0.0104-0.30469 0.0104-0.63281v-0.83333c-0.35933-0.01043-0.65627-0.02605-1.026-0.02605-0.39067 0-0.698 0.01043-1.0885 0.02605v0.83333c0.0052 0.9427 0.0208 0.9427 0.60413 1.0052v0.24479zm-0.76053-1.0026c-0.20307 0.32292-0.68227 1.1224-1.9323 1.1224-1.3593 0-2.2396-1.0052-2.2396-2.3229 0-1.224 0.7448-2.4323 2.2709-2.4323 0.8072 0 1.2291 0.34636 1.4948 0.54688l0.3072-0.28125 0.02613 1.3698-0.2032 0.04427c-0.07813-0.26563-0.19267-0.48177-0.4844-0.79948-0.14053-0.14323-0.47387-0.44271-0.94787-0.44271-0.81773 0-1.4636 0.66667-1.4636 1.8385 0 0.9948 0.53133 1.9271 1.5781 1.9271 0.78653 0 1.0885-0.4375 1.3229-0.77604zm15.74-2.6276-0.66146 1.875h1.3021zm0.40627 3.6302v-0.24479c0.30733-0.02083 0.54693-0.03906 0.54693-0.29688 0-0.08073-0.0261-0.17969-0.0521-0.26562l-0.13533-0.46354h-1.5939l-0.14056 0.39063c-0.0313 0.10156-0.0625 0.1875-0.0625 0.28125 0 0.32292 0.34374 0.34375 0.61974 0.35417v0.24479h-1.8645v-0.24479c0.474-0.02083 0.62507-0.11458 0.80214-0.58854l1.2239-3.3542-0.0729-0.10937c0.52093-0.17188 0.672-0.25521 0.90107-0.41667 0.0833 0.30208 0.0989 0.34375 0.198 0.66667l1.0052 3.0729c0.17706 0.54167 0.2604 0.67708 0.7396 0.72917v0.24479h-2.1147"/><path d="m28.803 58.092v-8.6667h4.7292v1.3329h-2.9167v2.1364h2.6891v1.3317h-2.6891v2.5328h3.0125v1.3328h-4.8251"/><path d="m34.815 58.092v-8.6667h1.8125v7.2267h2.7131v1.44h-4.5256"/><path d="m40.131 58.092v-8.6667h4.7292v1.3329h-2.9167v2.1364h2.6891v1.3317h-2.6891v2.5328h3.0125v1.3328h-4.8251"/><path d="m46.047 53.758c0-2.2932 0-4.4771 2.9891-4.4771 1.8489 0 2.5932 1.0199 2.5208 2.8808h-1.7761c0-1.1527-0.20467-1.5849-0.74467-1.5849-1.0204 0-1.1527 0.9604-1.1527 3.1812 0 2.2209 0.13227 3.1808 1.1527 3.1808 0.84 0 0.80467-1.0797 0.82853-1.7641h1.7885c0 2.3163-0.9244 3.0605-2.6171 3.0605-2.9891 0-2.9891-2.2084-2.9891-4.4772"/><path d="m57.965 49.425v1.4407h-2.0167v7.226h-1.8124v-7.226h-2.0161v-1.4407h5.8452"/><path d="m60.58 53.17h0.80467c0.71973 0 0.92347-0.7208 0.92347-1.2729 0-0.828-0.34747-1.1395-0.92347-1.1395h-0.80467zm0 4.9213h-1.8125v-8.6667h3.3484c1.2365 0 2.0292 0.79227 2.0292 2.2688 0 1.1041-0.43227 1.9323-1.6084 2.1245v0.02387c0.39587 0.04853 1.5724 0.14387 1.5724 1.7048 0 0.55147 0.036 2.1848 0.20373 2.5447h-1.7761c-0.24-0.528-0.19213-1.1167-0.19213-1.6807 0-1.0323 0.09587-1.9083-1.2969-1.9083h-0.4676v3.5889"/><path d="m65.475 58.092v-8.6667h1.8124v8.6667h-1.8124"/><path d="m68.727 53.758c0-2.2932 0-4.4771 2.9891-4.4771 1.8489 0 2.5928 1.0199 2.5208 2.8808h-1.776c0-1.1527-0.20467-1.5849-0.7448-1.5849-1.0203 0-1.1525 0.9604-1.1525 3.1812 0 2.2209 0.13227 3.1808 1.1525 3.1808 0.84067 0 0.80467-1.0797 0.82867-1.7641h1.7885c0 2.3163-0.9244 3.0605-2.6172 3.0605-2.9891 0-2.9891-2.2084-2.9891-4.4772"/><path d="m78.316 51.093h-0.02387l-0.82813 3.7448h1.7285zm-3.4927 6.9984 2.4005-8.6667h2.3885l2.3525 8.6667h-1.9083l-0.48027-1.9208h-2.4724l-0.49213 1.9208h-1.7885"/><path d="m82.827 58.092v-8.6667h1.8131v7.2267h2.7125v1.44h-4.5256"/><path d="m94.095 51.105c0-0.45573-0.276-0.74427-0.74427-0.74427-0.3844 0-0.75573 0.276-0.75573 0.6844 0 0.49213 0.324 0.88853 0.63587 1.2484 0.41987-0.264 0.86413-0.64787 0.86413-1.1885zm-1.2125 3.0969c-0.43227 0.33587-0.876 0.82813-0.876 1.4047 0 0.82867 0.4916 1.3323 1.3197 1.3323 0.51667 0 1.0089-0.16773 1.3213-0.576zm2.8208 3.2052c-0.68427 0.6724-1.488 0.82813-2.4124 0.82813-1.9933 0-3.0975-0.93653-3.0975-2.6287 0-1.1527 0.80467-1.8844 1.7047-2.4729-0.45573-0.588-0.9604-1.2719-0.9604-2.1724 0-0.9604 1.1407-1.6803 2.6172-1.6803 0.82813 0 2.1969 0.38387 2.1969 1.6928 0 1.1281-0.7808 1.7041-1.4767 2.3281l1.3557 1.7765c0.15627-0.56413 0.19227-0.888 0.19227-1.7287h1.4651c0 0.90053 0 2.0287-0.58853 2.9651l1.3084 1.7765h-1.7767l-0.52813-0.68427"/><path d="m0 65.416c0-2.2927 0-4.4771 2.988-4.4771 1.8495 0 2.5932 1.0203 2.5213 2.8812h-1.7766c0-1.1525-0.20417-1.5848-0.74479-1.5848-1.0198 0-1.1521 0.9604-1.1521 3.1807 0 2.2208 0.13229 3.1813 1.1521 3.1813 0.84061 0 0.8052-1.0802 0.82916-1.7646h1.788c0 2.3167-0.92448 3.0609-2.6172 3.0609-2.988 0-2.988-2.2083-2.988-4.4776"/><path d="m10.813 65.416c0-2.2203-0.13177-3.1807-1.1521-3.1807-1.0203 0-1.1526 0.9604-1.1526 3.1807 0 2.2208 0.13229 3.1813 1.1526 3.1813 1.0203 0 1.1521-0.96043 1.1521-3.1813zm-4.1406 0c0-2.2927 0-4.4771 2.9885-4.4771 2.9885 0 2.9885 2.1844 2.9885 4.4771 0 2.2693 0 4.4776-2.9885 4.4776-2.9885 0-2.9885-2.2083-2.9885-4.4776"/><path d="m14.052 69.749v-8.6667h2.9172l1.3563 5.8943h0.02387l1.4401-5.8943h2.8208v8.6667h-1.764v-6.6859h-0.02453l-1.6683 6.6859h-1.7285l-1.5844-6.6859h-0.024v6.6859h-1.7645"/><path d="m25.908 64.889h1.0083c0.54067 0 0.912-0.58853 0.912-1.1645 0-0.70787-0.19227-1.3084-1.0084-1.3084h-0.91187zm-1.8125-3.8057h3.2645c1.6568 0 2.3047 1.0088 2.3047 2.5932 0 0.98387-0.28747 2.5443-2.4124 2.5443h-1.3443v3.5292h-1.8125v-8.6667"/><path d="m36.614 61.083v6.1464c0 1.2958-0.73293 2.6646-2.9412 2.6646-1.9927 0-2.9531-1.0318-2.9531-2.6646v-6.1464h1.8124v6.0266c0 1.0682 0.45627 1.488 1.1167 1.488 0.79227 0 1.1527-0.52813 1.1527-1.488v-6.0266h1.8125"/><path d="m43.249 61.083v1.4412h-2.0172v7.2255h-1.8125v-7.2255h-2.0161v-1.4412h5.8459"/><path d="m44.088 69.749v-8.6667h4.7292v1.3328h-2.9167v2.1371h2.6885v1.3317h-2.6885v2.5328h3.0125v1.3323h-4.8251"/><path d="m51.864 64.829h0.8048c0.71973 0 0.92333-0.7208 0.92333-1.2729 0-0.82813-0.34733-1.1401-0.92333-1.1401h-0.8048zm0 4.9208h-1.8124v-8.6667h3.3489c1.2359 0 2.0287 0.79267 2.0287 2.2693 0 1.1041-0.43187 1.9323-1.6084 2.1239v0.02453c0.39587 0.04787 1.5724 0.14373 1.5724 1.7042 0 0.55208 0.036 2.1849 0.20373 2.5448h-1.7761c-0.24013-0.5276-0.1916-1.1161-0.1916-1.6802 0-1.0323 0.09533-1.9089-1.2975-1.9089h-0.46773v3.5891"/><path d="m59.424 69.749v-8.6667h4.7291v1.3328h-2.9167v2.1371h2.6887v1.3317h-2.6887v2.5328h3.012v1.3323h-4.8244"/><path d="m65.435 69.749v-8.6667h2.4489l2.3047 6.0021h0.024v-6.0021h1.6927v8.6667h-2.3885l-2.3645-6.3375h-0.02453v6.3375h-1.6927"/><path d="m77.389 63.748c0.012-0.80413-0.11973-1.5124-1.0801-1.5124-1.1287 0-1.1287 1.5244-1.1287 3.2052 0 2.713 0.264 3.1927 1.2968 3.1927 0.3 0 0.624-0.07188 0.89947-0.16823v-1.9203h-0.98333v-1.3323h2.7969v4.3932c-0.49227 0.09583-1.7287 0.28801-2.4495 0.28801-3.0484 0-3.3964-1.2604-3.3964-4.5495 0-2.1844 0.10733-4.4052 3.0729-4.4052 1.776 0 2.8803 0.9964 2.7729 2.8088h-1.8011"/><path d="m80.759 69.749v-8.6667h1.8125v8.6667h-1.8125"/><path d="m84.107 69.749v-8.6667h2.4484l2.3047 6.0021h0.02453v-6.0021h1.6921v8.6667h-2.3885l-2.3645-6.3375h-0.024v6.3375h-1.6927"/><path d="m92.099 69.749v-8.6667h4.7292v1.3328h-2.9167v2.1371h2.6891v1.3317h-2.6891v2.5328h3.0125v1.3323h-4.8251"/><path d="m98.099 69.749v-8.6667h4.7292v1.3328h-2.9167v2.1371h2.6891v1.3317h-2.6891v2.5328h3.0125v1.3323h-4.8251"/><path d="m105.88 64.829h0.80467c0.71973 0 0.92387-0.7208 0.92387-1.2729 0-0.82813-0.34787-1.1401-0.92387-1.1401h-0.80467zm0 4.9208h-1.8125v-8.6667h3.3489c1.2364 0 2.0287 0.79267 2.0287 2.2693 0 1.1041-0.43227 1.9323-1.6084 2.1239v0.02453c0.3964 0.04787 1.5724 0.14373 1.5724 1.7042 0 0.55208 0.036 2.1849 0.20427 2.5448h-1.7767c-0.24-0.5276-0.1916-1.1161-0.1916-1.6802 0-1.0323 0.0959-1.9089-1.2969-1.9089h-0.46814v3.5891"/><path d="m110.77 69.749v-8.6667h1.8125v8.6667h-1.8125"/><path d="m114.12 69.749v-8.6667h2.4484l2.3047 6.0021h0.024v-6.0021h1.6927v8.6667h-2.3885l-2.3645-6.3375h-0.024v6.3375h-1.6927"/><path d="m126.07 63.748c0.0115-0.80413-0.11974-1.5124-1.0803-1.5124-1.1285 0-1.1285 1.5244-1.1285 3.2052 0 2.713 0.264 3.1927 1.2963 3.1927 0.30054 0 0.624-0.07188 0.9-0.16823v-1.9203h-0.98386v-1.3323h2.7969v4.3932c-0.49227 0.09583-1.7281 0.28801-2.4489 0.28801-3.0489 0-3.3969-1.2604-3.3969-4.5495 0-2.1844 0.10787-4.4052 3.0735-4.4052 1.7755 0 2.8801 0.9964 2.7724 2.8088h-1.8005"/></g></svg>
